<svg width="100%" height="100%" viewBox="0 0 76 76" fill="none" xmlns="http://www.w3.org/2000/svg">
<path d="M6 0C12.9281 5.66574 19.142 12.0303 25.4375 18.375C26.5616 19.5041 27.686 20.633 28.8105 21.7617C31.5431 24.5052 34.2724 27.2517 37 30C39.8097 28.7198 41.8539 27.3929 44.0244 25.2026C44.5847 24.6422 45.145 24.0818 45.7222 23.5044C46.314 22.9022 46.9059 22.3001 47.5156 21.6797C48.1315 21.061 48.7473 20.4424 49.3818 19.805C51.3426 17.833 53.2964 15.8541 55.25 13.875C56.5803 12.5347 57.911 11.1948 59.2422 9.85547C62.5001 6.57553 65.7517 3.28944 69 0C72.9446 2.07608 73.911 2.822 76 7C66.1 16.9 56.2 26.8 46 37C47.5989 40.1977 48.416 41.6645 50.7974 44.0244C51.3578 44.5847 51.9182 45.145 52.4956 45.7222C53.3989 46.61 53.3989 46.61 54.3203 47.5156C55.2483 48.4394 55.2483 48.4394 56.195 49.3818C58.167 51.3426 60.1459 53.2964 62.125 55.25C63.4653 56.5803 64.8052 57.911 66.1445 59.2422C69.4245 62.5001 72.7106 65.7517 76 69C74.6406 71.8606 73.3548 73.8593 71 76C68.1903 74.7198 66.1461 73.3929 63.9756 71.2026C63.4153 70.6422 62.855 70.0818 62.2778 69.5044C61.686 68.9022 61.0941 68.3001 60.4844 67.6797C59.8685 67.061 59.2527 66.4424 58.6182 65.805C56.6574 63.833 54.7036 61.8541 52.75 59.875C51.4197 58.5347 50.089 57.1948 48.7578 55.8555C45.4999 52.5755 42.2483 49.2894 39 46C36.1903 47.2802 34.1461 48.6071 31.9756 50.7974C31.4153 51.3578 30.855 51.9182 30.2778 52.4956C29.686 53.0978 29.0941 53.6999 28.4844 54.3203C27.8685 54.939 27.2527 55.5576 26.6182 56.195C24.6574 58.167 22.7036 60.1459 20.75 62.125C19.4197 63.4653 18.089 64.8052 16.7578 66.1445C13.4999 69.4245 10.2483 72.7106 7 76C4.13941 74.6406 2.14072 73.3548 0 71C1.28023 68.1903 2.60714 66.1461 4.79736 63.9756C5.35779 63.4153 5.91822 62.855 6.49564 62.2778C7.09778 61.686 7.69992 61.0941 8.32031 60.4844C8.93897 59.8685 9.55763 59.2527 10.195 58.6182C12.167 56.6574 14.1459 54.7036 16.125 52.75C17.4653 51.4197 18.8052 50.089 20.1445 48.7578C23.4245 45.4999 26.7106 42.2483 30 39C28.7198 36.1903 27.3929 34.1461 25.2026 31.9756C24.6422 31.4153 24.0818 30.855 23.5044 30.2778C22.9022 29.686 22.3001 29.0941 21.6797 28.4844C21.061 27.8685 20.4424 27.2527 19.805 26.6182C17.833 24.6574 15.8541 22.7036 13.875 20.75C12.5347 19.4197 11.1948 18.089 9.85547 16.7578C6.57553 13.4999 3.28944 10.2483 0 7C1.98 4.69 3.96 2.38 6 0Z" fill="currentColor"/>
</svg>
