<svg width="100%" height="100%" viewBox="0 0 197 41" fill="none" xmlns="http://www.w3.org/2000/svg">
<path d="M35.5 38.3207V39.7007H27.64C26.74 38.9207 25.06 37.2407 23.32 35.3807C20.38 38.8607 16.96 40.4807 12.76 40.4807C4.48002 40.4807 0.400024 35.3207 0.400024 30.2807C0.400024 25.1807 4.36002 21.8807 9.28002 19.0607C5.62002 14.6807 4.18002 12.1607 4.18002 8.98071C4.18002 4.48071 8.38002 0.220703 13.84 0.220703C19.48 0.220703 23.32 4.1207 23.32 8.14071C23.32 12.8807 19.6 15.5807 14.8 18.1607L24.94 29.6207C25.66 28.1807 26.32 26.4407 26.86 24.4007C27.64 21.8207 26.74 20.8607 24.46 20.6807L23.44 20.5607V19.1207H34.66V20.5607L33.7 20.6807C31.54 20.8607 29.98 21.9407 28.96 24.8807C28.12 27.2207 27.16 29.3207 26.2 31.0607L27.46 32.5007C31.06 36.5207 32.74 37.8407 34.84 38.2007L35.5 38.3207ZM22.24 34.0607L10.3 20.2607C6.46002 23.0807 5.62002 25.9607 5.62002 29.2607C5.62002 33.6407 8.80002 38.2007 14.32 38.2007C17.2 38.2007 19.9 36.9407 22.24 34.0607ZM8.56003 7.3007C8.56003 9.9407 9.58002 12.3407 13.72 17.0207C17.38 14.9207 19.3 12.2207 19.3 8.14071C19.3 4.6007 17.02 1.9007 13.66 1.9007C10.78 1.9007 8.56003 4.0607 8.56003 7.3007Z" fill="white"/>
<path d="M48.0935 40.0007V39.0407C51.6335 38.0807 51.8735 36.6407 51.8735 32.3807V9.8807C51.8735 5.62071 51.6335 4.24071 48.0935 3.2207V2.26071H62.5535C73.1735 2.26071 81.4535 8.5007 81.4535 20.2007C81.4535 33.1007 73.7735 40.0007 62.0135 40.0007H48.0935ZM56.4935 37.2407H62.1335C70.9535 37.2407 76.2335 30.0407 76.2335 20.4407C76.2335 11.8607 70.1735 4.9607 62.7935 4.9607H56.4935V37.2407Z" fill="currentColor"/>
<path d="M95.5169 5.0807V19.1807H105.177C108.597 19.1807 109.317 17.6807 109.497 16.1207H110.637V25.1807H109.497C109.317 23.6207 108.597 22.1207 105.177 22.1207H95.5169V37.2407H108.417C112.137 37.2407 114.597 35.6207 115.977 33.1007H116.817L116.097 40.0007H87.1169V39.0407C90.6569 38.0807 90.8969 37.1807 90.8969 32.9807V9.4007C90.8969 5.1407 90.6569 4.3607 87.1169 3.2807V2.3207H114.297V9.8207H113.337C112.017 6.2207 110.217 5.0807 106.557 5.0807H95.5169Z" fill="currentColor"/>
<path d="M122.299 40.0007V39.0407C125.239 37.8407 125.479 37.0607 129.199 26.5007L138.019 1.7807H143.299L152.059 26.9207C155.419 36.6407 156.019 37.8407 158.959 39.0407V40.0007H147.139V39.0407C149.299 38.4407 149.659 37.7807 149.659 35.9807C149.659 34.1207 148.939 31.5407 147.319 26.8007L146.719 25.3007H132.559L132.079 26.7407C130.279 32.0807 129.859 33.8807 129.859 35.8007C129.859 37.6007 130.279 38.2607 132.439 39.0407V40.0007H122.299ZM133.639 22.1807H145.459L139.579 4.9007L133.639 22.1807Z" fill="currentColor"/>
<path d="M173.553 22.6007V22.1807C178.233 22.1807 185.853 20.8607 185.853 13.0607C185.853 7.6607 182.373 4.5407 176.373 4.5407H171.573V32.9207C171.573 37.1207 171.813 38.0207 175.353 38.9807V39.9407H163.113V38.9807C166.653 38.0207 166.893 37.1207 166.893 32.9207V9.2807C166.893 5.0807 166.653 4.18071 163.113 3.2207V2.3207H176.493C190.833 2.3207 190.713 12.4007 190.713 12.4007C190.713 20.1407 185.373 22.7207 180.273 23.6207L184.353 29.2007C186.873 32.7407 191.913 38.9807 196.173 38.9807V40.0007H186.633L173.553 22.6007Z" fill="currentColor"/>
</svg>
