<svg width="100%" height="100%" viewBox="0 0 79 71" fill="none" xmlns="http://www.w3.org/2000/svg">
<path d="M73.2656 0C74.1886 0.0825 75.1116 0.165 76.0625 0.25C77.375 2.1875 77.375 2.1875 78.0625 5.25C75.3432 11.7615 70.8843 17.6833 66.9375 23.5C65.7085 25.3274 64.4807 27.1556 63.2539 28.9844C62.5902 29.9737 61.9265 30.9631 61.2427 31.9824C57.5155 37.5686 53.8322 43.1834 50.1522 48.8007C49.3054 50.093 48.4582 51.3851 47.6105 52.6769C46.4125 54.5026 45.2158 56.3293 44.0195 58.1562C42.9828 59.7389 42.9828 59.7389 41.925 61.3535C40.727 63.2166 39.5874 65.1193 38.5251 67.063C37.0625 69.25 37.0625 69.25 33.7031 70.3359C29.0875 70.227 28.0006 69.1315 24.8125 65.875C23.8741 64.9546 22.9356 64.0342 21.9688 63.0859C21.4905 62.6112 21.0123 62.1365 20.5195 61.6475C18.2329 59.4543 15.7793 57.4857 13.3125 55.5C12.4127 54.7678 11.513 54.0356 10.5859 53.2812C9.01769 52.0189 7.44099 50.7668 5.85156 49.5312C3.16701 47.3836 1.2801 45.8004 0 42.5625C0.0625 40.25 0.0625 40.25 2.0625 37.25C4.26562 36.7188 4.26562 36.7188 7.0625 37.25C9.49342 39.0115 11.6134 40.7358 13.8125 42.75C14.4265 43.2937 15.0405 43.8375 15.6731 44.3977C17.4811 46.0028 19.274 47.6232 21.0625 49.25C22.7901 50.8142 24.519 52.377 26.25 53.9375C26.9242 54.5601 27.5984 55.1827 28.293 55.8242C30.1136 57.4609 30.1136 57.4609 33.0625 58.25C33.3145 57.5453 33.5665 56.8406 33.8262 56.1145C35.2003 52.9308 36.8981 50.2883 38.8438 47.418C39.2136 46.8687 39.5835 46.3195 39.9645 45.7536C40.7529 44.5833 41.5433 43.4143 42.3355 42.2466C44.3966 39.2077 46.4429 36.1589 48.4883 33.1094C48.8895 32.5116 49.2907 31.9138 49.7041 31.298C52.8144 26.651 55.8192 21.9491 58.75 17.1875C59.5087 15.9672 60.2678 14.7471 61.0273 13.5273C62.3614 11.379 63.6873 9.22549 65.0039 7.06641C65.8992 5.67229 65.8992 5.67229 66.8125 4.25C67.3023 3.46625 67.7922 2.6825 68.2969 1.875C70.0625 0.25 70.0625 0.25 73.2656 0Z" fill="currentColor"/>
</svg>
