<svg width="100%" height="100%" viewBox="0 0 90 90" fill="none" xmlns="http://www.w3.org/2000/svg">
<path d="M9 27C11.8768 26.6164 14.0996 26.4553 16.6465 27.9961C18.412 29.4378 20.0854 30.9428 21.75 32.5C22.9819 33.6055 24.215 34.7096 25.4492 35.8125C26.0504 36.3565 26.6516 36.9005 27.271 37.4609C31.0375 40.8137 35.0392 43.8824 39 47C40.6676 48.3322 42.3345 49.6652 44 51C47.2446 49.5292 49.8055 47.6858 52.5625 45.4375C53.4352 44.7285 54.3079 44.0195 55.207 43.2891C56.1287 42.5337 57.0504 41.7783 58 41C58.9526 40.224 59.9052 39.448 60.8867 38.6484C61.8316 37.8776 62.7765 37.1067 63.75 36.3125C64.6665 35.5674 65.583 34.8223 66.5273 34.0547C67.9853 32.8432 69.4246 31.6073 70.8164 30.3203C73.4019 27.9306 74.5727 27.0163 78.168 26.8789C79.1025 26.9189 80.0371 26.9588 81 27C81.7004 31.1813 81.8852 34.8355 81 39C77.8761 42.7629 74.0163 45.2541 70 48C68.1516 49.4813 66.3178 50.9812 64.5 52.5C63.5989 53.2309 62.6979 53.9618 61.7695 54.7148C59.8459 56.302 57.949 57.9219 56.0742 59.5664C55.1216 60.3901 54.169 61.2138 53.1875 62.0625C52.3354 62.8166 51.4834 63.5707 50.6055 64.3477C47.3202 66.4311 45.8263 66.7177 42 66C39.6027 64.2999 37.6199 62.6814 35.5 60.6875C34.2745 59.5846 33.0465 58.4844 31.8164 57.3867C31.1901 56.8239 30.5638 56.261 29.9185 55.6811C26.8549 52.9965 23.6559 50.4951 20.4375 48C19.8664 47.5562 19.2954 47.1123 18.707 46.655C16.2134 44.7187 13.7458 42.8305 11.1172 41.0781C9 39 9 39 8.51172 35.9844C8.56973 34.917 8.62773 33.8497 8.6875 32.75C8.73262 31.6723 8.77773 30.5947 8.82422 29.4844C8.88223 28.6645 8.94023 27.8447 9 27Z" fill="currentColor"/>
</svg>
