<svg width="100%" height="100%" viewBox="0 0 100 100" fill="none" xmlns="http://www.w3.org/2000/svg">
<path d="M30 35C32 38 32 38 31.625 40.6875C31.3156 41.8322 31.3156 41.8322 31 43C24.25 45 24.25 45 22 45C21.9506 49.3782 21.9143 53.7563 21.8901 58.1348C21.8801 59.6247 21.8664 61.1146 21.8491 62.6045C21.8249 64.7442 21.8135 66.8836 21.8047 69.0234C21.7942 70.3117 21.7837 71.5999 21.7729 72.9272C21.6716 76.107 21.6716 76.107 24 78C26.2901 78.3062 26.2901 78.3062 28.9687 78.2588C30.5204 78.2682 30.5204 78.2682 32.1035 78.2779C33.2243 78.2738 34.3452 78.2698 35.5 78.2656C36.6466 78.2675 37.7932 78.2694 38.9746 78.2714C41.4023 78.2728 43.8301 78.2691 46.2578 78.2607C49.9845 78.25 53.7108 78.2606 57.4375 78.2734C59.7917 78.2721 62.1458 78.2695 64.5 78.2656C66.1812 78.2717 66.1812 78.2717 67.8965 78.2779C69.4482 78.2684 69.4482 78.2684 71.0312 78.2588C71.9445 78.2572 72.8578 78.2556 73.7988 78.254C76.2072 78.2071 76.2072 78.2071 78 76C78.2792 72.7919 78.2792 72.7919 78.1953 69.0234C78.1911 67.9956 78.1911 67.9956 78.1867 66.9469C78.1755 64.7561 78.1504 62.5657 78.125 60.375C78.115 58.8906 78.1058 57.4062 78.0976 55.9219C78.0756 52.2811 78.041 48.6406 78 45C75.9818 44.8372 73.9635 44.6745 71.9453 44.5117C70 44 70 44 68 41C68.5405 36.4595 68.5405 36.4595 70 35C74.657 34.4019 78.1445 34.5722 82.375 36.6875C86.2247 40.0789 87.8372 42.5151 88.404 47.6853C88.4304 49.1012 88.4393 50.5175 88.4336 51.9336C88.4388 52.6891 88.4441 53.4447 88.4495 54.2232C88.4559 55.8158 88.4546 57.4086 88.446 59.0012C88.4375 61.4268 88.4663 63.85 88.498 66.2754C88.4996 67.8281 88.4991 69.3809 88.4961 70.9336C88.5073 71.6525 88.5185 72.3714 88.5301 73.1122C88.4602 78.214 87.2926 81.1275 84 85C80.3003 87.6648 77.7369 88.3796 73.2034 88.404C71.4912 88.4231 71.4912 88.4231 69.7444 88.4425C68.5203 88.4395 67.2963 88.4366 66.0351 88.4336C64.7691 88.4388 63.503 88.4441 62.1986 88.4495C59.5228 88.4559 56.8478 88.456 54.1721 88.446C50.7545 88.4346 47.338 88.4548 43.9205 88.484C40.6462 88.5068 37.372 88.4998 34.0976 88.4961C32.2646 88.5129 32.2646 88.5129 30.3945 88.5301C19.6119 88.4418 19.6119 88.4418 15 84C11.6897 79.962 11.5459 76.1036 11.5664 71.0664C11.5611 70.3108 11.5559 69.5553 11.5505 68.7768C11.5441 67.1842 11.5454 65.5914 11.5539 63.9988C11.5624 61.5732 11.5337 59.15 11.5019 56.7246C11.5003 55.1719 11.5009 53.6191 11.5039 52.0664C11.4927 51.3475 11.4814 50.6285 11.4698 49.8878C11.5397 44.7945 12.8269 41.9375 16 38C20.029 34.5465 24.8619 33.9704 30 35Z" fill="currentColor"/>
<path d="M54 13C56.5579 14.8119 58.6914 16.9471 60.875 19.1875C61.468 19.7528 62.0609 20.318 62.6719 20.9004C65.5097 23.7546 66.8822 25.234 67.5078 29.3008C67 32 67 32 65 34C62.625 34.375 62.625 34.375 60 34C58.6227 32.7122 57.2833 31.3816 56 30C55.9802 31.0748 55.9604 32.1497 55.9399 33.2571C55.8639 37.2436 55.7752 41.2299 55.6826 45.2161C55.6443 46.9416 55.6095 48.6672 55.5781 50.3928C55.5325 52.8729 55.4745 55.3523 55.4141 57.832C55.3967 58.99 55.3967 58.99 55.3791 60.1713C55.2748 63.9525 55.1465 65.7802 53 69C50 69.375 50 69.375 47 69C44.4956 65.2434 44.6511 62.1899 44.5859 57.832C44.5666 57.0372 44.5472 56.2424 44.5273 55.4235C44.4675 52.8866 44.4211 50.3497 44.375 47.8125C44.3368 46.0918 44.2978 44.3711 44.2578 42.6504C44.1618 38.4338 44.0778 34.217 44 30C43.3941 30.6523 42.7883 31.3045 42.1641 31.9766C40 34 40 34 37.375 34.375C35 34 35 34 33 32C32.4766 29.3008 32.4766 29.3008 33 26C34.8295 23.4113 37.0542 21.3345 39.375 19.1875C40.2799 18.3106 40.2799 18.3106 41.2031 17.416C47.6966 11.1895 47.6966 11.1895 54 13Z" fill="currentColor"/>
</svg>
