<svg width="100" height="100" viewBox="0 0 100 100" fill="none" xmlns="http://www.w3.org/2000/svg">
<path d="M50.51 16.0786C53.4893 17.1811 54.2016 18.059 55.8398 20.7422C56.345 21.5591 56.8501 22.3761 57.3706 23.2178C57.9083 24.1359 58.446 25.054 59 26C59.8742 27.4816 59.8742 27.4816 60.7661 28.9932C62.7228 32.3568 64.6478 35.7374 66.5625 39.125C67.2603 40.3563 67.9582 41.5875 68.6562 42.8186C69.7217 44.6977 70.7868 46.5771 71.8504 48.4572C74.1838 52.5779 76.5497 56.6779 78.9336 60.7695C79.5368 61.8129 80.14 62.8562 80.7615 63.9311C81.8961 65.8932 83.0385 67.8508 84.1897 69.8032C84.6943 70.6816 85.1989 71.5599 85.7188 72.4648C86.3829 73.6036 86.3829 73.6036 87.0605 74.7654C88.1694 77.4029 88.3992 79.1678 88 82C84.3536 84.431 82.6254 84.2532 78.2812 84.2588C77.6029 84.2623 76.9245 84.2658 76.2256 84.2694C73.9836 84.2782 71.742 84.2724 69.5 84.2656C67.9421 84.267 66.3841 84.2689 64.8262 84.2714C61.5612 84.2744 58.2963 84.2701 55.0312 84.2607C50.8446 84.2493 46.6582 84.2559 42.4716 84.2679C39.2545 84.2751 36.0376 84.2728 32.8206 84.2676C31.2768 84.2663 29.733 84.2679 28.1892 84.2726C26.0322 84.2777 23.8757 84.2699 21.7188 84.2588C19.877 84.2564 19.877 84.2564 17.998 84.254C15 84 15 84 12 82C12.4947 77.0007 13.4937 73.4993 16.0352 69.1758C16.6724 68.0774 17.3096 66.9791 17.9661 65.8474C18.6646 64.669 19.3635 63.4907 20.0625 62.3125C20.7787 61.0873 21.4938 59.8615 22.2078 58.635C23.3217 56.7225 24.4367 54.8107 25.5562 52.9014C28.2513 48.3039 30.8963 43.6801 33.5156 39.0391C34.2434 37.7522 34.9712 36.4653 35.699 35.1785C36.7505 33.3185 37.801 31.458 38.8477 29.5954C39.8171 27.8722 40.7932 26.1528 41.7695 24.4336C42.3223 23.4545 42.8751 22.4753 43.4446 21.4665C46.9133 15.966 46.9133 15.966 50.51 16.0786Z" fill="#FEC007"/>
<path d="M46 38C48.64 38 51.28 38 54 38C54.0292 41.2291 54.0469 44.4583 54.0625 47.6875C54.0709 48.5995 54.0793 49.5115 54.0879 50.4512C54.0911 51.3374 54.0943 52.2236 54.0977 53.1367C54.1029 53.9484 54.1081 54.7601 54.1135 55.5964C53.993 58.1486 53.5599 60.5103 53 63C51.02 63 49.04 63 47 63C46.67 54.75 46.34 46.5 46 38Z" fill="#684933"/>
<path d="M48 67C50.625 67.375 50.625 67.375 53 68C53.625 70.375 53.625 70.375 54 73C53.34 73.66 52.68 74.32 52 75C49.375 74.625 49.375 74.625 47 74C46.375 71.625 46.375 71.625 46 69C46.66 68.34 47.32 67.68 48 67Z" fill="#654634"/>
</svg>
